<svg xmlns="http://www.w3.org/2000/svg" width="21.999" height="22" viewBox="0 0 21.999 22"><g transform="translate(0 0)"><path d="M1816.669-50.76l-2.517-2.516a2.375,2.375,0,0,0-1.691-.7,2.379,2.379,0,0,0-1.692.7l-1.968,1.968-.933.933h0l-.217.218-11.894,11.894-.387.386v5.9h5.9l.386-.387,11.894-11.894.218-.217.933-.934,1.968-1.968A2.394,2.394,0,0,0,1816.669-50.76ZM1800.723-33.3h-4.033V-37.33l1.213-1.213,4.05,4.016Zm2.163-2.164-4.049-4.016,9.747-9.747,4.033,4.033Zm12.849-12.849-1.967,1.968-4.033-4.033,1.968-1.968a1.07,1.07,0,0,1,.758-.314,1.072,1.072,0,0,1,.758.314l2.516,2.517A1.069,1.069,0,0,1,1815.735-48.31Z" transform="translate(-1795.37 53.977)"/></g></svg>