<svg xmlns="http://www.w3.org/2000/svg" width="17.875" height="22" viewBox="0 0 17.875 22"><path d="M1819.219-75.25h-3.782v-.688A2.064,2.064,0,0,0,1813.375-78h-2.75a2.065,2.065,0,0,0-2.063,2.062v.688h-3.781a1.721,1.721,0,0,0-1.719,1.719v2.406a.687.687,0,0,0,.688.687h.376l.594,12.474A2.059,2.059,0,0,0,1806.78-56h10.44a2.059,2.059,0,0,0,2.06-1.964l.594-12.474h.376a.686.686,0,0,0,.687-.687v-2.406a1.721,1.721,0,0,0-1.718-1.719Zm-9.282-.688a.688.688,0,0,1,.688-.687h2.75a.688.688,0,0,1,.687.687v.688h-4.125Zm-5.5,2.407a.345.345,0,0,1,.344-.344h14.438a.344.344,0,0,1,.343.344v1.718h-15.125Zm13.47,15.5a.687.687,0,0,1-.687.655h-10.44a.687.687,0,0,1-.687-.655l-.591-12.408h13ZM1812-58.75a.687.687,0,0,0,.687-.688v-8.937a.687.687,0,0,0-.687-.688.688.688,0,0,0-.688.688v8.937A.688.688,0,0,0,1812-58.75Zm3.437,0a.688.688,0,0,0,.688-.688v-8.937a.688.688,0,0,0-.688-.688.688.688,0,0,0-.687.688v8.937A.688.688,0,0,0,1815.437-58.75Zm-6.875,0a.688.688,0,0,0,.688-.688v-8.937a.688.688,0,0,0-.688-.688.688.688,0,0,0-.687.688v8.937A.688.688,0,0,0,1808.562-58.75Z" transform="translate(-1803.062 78)"/></svg>